<svg width="14" height="14" viewBox="0 0 14 14" fill="none" xmlns="http://www.w3.org/2000/svg">
<path d="M5.10551 2.80815L4.83707 2.20417C4.66155 1.80925 4.57379 1.61179 4.44255 1.46067C4.27806 1.27129 4.06365 1.13196 3.82379 1.05857C3.6324 1 3.41631 1 2.98414 1C2.35194 1 2.03584 1 1.77049 1.12153C1.45791 1.26468 1.17563 1.57552 1.06315 1.9004C0.967671 2.17619 0.995025 2.45962 1.04972 3.02646C1.63194 9.06013 4.93989 12.3681 10.9735 12.9503C11.5404 13.005 11.8239 13.0323 12.0996 12.9369C12.4245 12.8244 12.7353 12.5421 12.8785 12.2295C13 11.9641 13 11.6481 13 11.0159C13 10.5837 13 10.3676 12.9415 10.1762C12.8681 9.93632 12.7287 9.72192 12.5393 9.55746C12.3883 9.42619 12.1908 9.33846 11.7959 9.16293L11.1919 8.89446C10.7642 8.70439 10.5503 8.60939 10.3331 8.58873C10.1251 8.56893 9.91539 8.59813 9.72073 8.67393C9.51733 8.75313 9.33759 8.90293 8.97799 9.20253C8.62012 9.50079 8.44119 9.64992 8.22252 9.72979C8.02865 9.80059 7.77239 9.82686 7.56825 9.79673C7.33792 9.76279 7.16159 9.66859 6.80885 9.48006C5.71152 8.89366 5.10636 8.28853 4.51992 7.19113C4.33143 6.83846 4.23719 6.66206 4.20325 6.4318C4.17317 6.2276 4.19939 5.97133 4.27021 5.77753C4.35009 5.55885 4.49921 5.3799 4.79747 5.022C5.09709 4.66245 5.2469 4.48268 5.32611 4.27927C5.40191 4.08462 5.43109 3.87493 5.41131 3.66698C5.39064 3.44968 5.29559 3.23584 5.10551 2.80815Z" stroke="white" stroke-width="1.5" stroke-linecap="round"/>
</svg>
